<?xml version="1.0" standalone="no"?>
<!DOCTYPE svg PUBLIC "-//W3C//DTD SVG 20010904//EN"
 "http://www.w3.org/TR/2001/REC-SVG-20010904/DTD/svg10.dtd">
<svg version="1.0" xmlns="http://www.w3.org/2000/svg"
 width="3307.000000pt" height="892.000000pt" viewBox="0 0 3307.000000 892.000000"
 preserveAspectRatio="xMidYMid meet">

<g transform="translate(0.000000,892.000000) scale(0.100000,-0.100000)"
fill="#000000" stroke="none">
<path d="M0 7960 l0 -960 960 0 960 0 0 960 0 960 -960 0 -960 0 0 -960z"/>
<path d="M2510 7960 l0 -960 960 0 960 0 0 960 0 960 -960 0 -960 0 0 -960z"/>
<path d="M5010 7960 l0 -960 960 0 960 0 0 960 0 960 -960 0 -960 0 0 -960z"/>
<path d="M13020 8910 c-989 -82 -1651 -466 -1979 -1150 -96 -201 -157 -412
-192 -670 -20 -142 -17 -553 4 -710 108 -778 491 -1331 1138 -1645 319 -154
631 -230 1051 -257 292 -18 659 8 953 67 686 138 1179 483 1443 1010 47 96
108 253 100 261 -8 8 -737 264 -752 264 -7 0 -18 -19 -25 -42 -7 -24 -33 -82
-57 -129 -145 -281 -414 -502 -761 -622 -202 -71 -399 -100 -658 -100 -490 2
-895 145 -1181 415 -269 255 -407 585 -421 1004 -17 489 117 883 392 1159 87
87 226 190 327 241 233 118 532 187 873 200 484 19 886 -110 1209 -390 70 -60
169 -182 199 -243 12 -24 26 -42 33 -39 6 2 155 50 330 106 176 55 341 108
367 116 l48 16 -47 86 c-124 230 -262 403 -445 556 -310 261 -710 421 -1205
482 -151 18 -590 27 -744 14z"/>
<path d="M19775 8910 c-1042 -85 -1602 -498 -1632 -1202 -7 -153 4 -246 44
-373 133 -422 578 -728 1253 -860 70 -13 405 -63 746 -109 667 -92 817 -118
964 -166 321 -104 474 -261 457 -466 -7 -94 -44 -164 -132 -250 -62 -62 -93
-82 -197 -133 -274 -134 -657 -194 -1088 -171 -358 20 -615 76 -845 185 -219
104 -420 295 -525 498 -19 37 -39 67 -45 67 -5 0 -185 -56 -400 -123 -346
-110 -390 -126 -387 -143 6 -33 68 -171 112 -247 66 -116 135 -204 249 -317
344 -341 839 -542 1516 -616 223 -24 728 -25 943 -1 860 97 1389 413 1568 939
47 140 59 221 58 418 -1 166 -3 195 -26 280 -101 375 -378 632 -863 800 -253
87 -373 111 -1130 224 -759 114 -811 123 -950 157 -204 52 -323 106 -408 187
-67 64 -82 103 -82 212 0 84 3 102 28 153 88 179 325 297 712 354 168 24 635
24 815 -1 547 -75 858 -254 1011 -581 24 -52 50 -94 56 -95 14 0 773 249 773
254 0 2 -18 48 -41 102 -78 189 -175 330 -326 475 -304 291 -758 468 -1373
534 -172 19 -696 28 -855 15z"/>
<path d="M30550 8909 c-746 -55 -1338 -307 -1701 -723 -258 -295 -404 -629
-471 -1071 -20 -139 -17 -607 5 -760 77 -520 265 -915 586 -1235 505 -503
1284 -722 2224 -625 540 56 990 224 1320 492 170 140 343 355 442 553 49 97
119 269 113 276 -2 2 -175 63 -383 137 l-380 134 -31 -83 c-63 -169 -222 -373
-387 -497 -315 -237 -745 -349 -1212 -317 -745 52 -1258 434 -1419 1055 -67
262 -64 633 9 916 136 527 522 875 1104 994 674 139 1279 6 1664 -364 93 -89
140 -148 176 -217 l22 -42 102 32 c56 18 221 70 367 116 146 46 269 87 273 90
19 16 -113 240 -221 380 -400 511 -1061 776 -1921 769 -97 -1 -223 -5 -281
-10z"/>
<path d="M16390 6690 l0 -2120 415 0 415 0 0 2120 0 2120 -415 0 -415 0 0
-2120z"/>
<path d="M23150 7517 c0 -838 4 -1332 11 -1403 49 -510 252 -924 582 -1190
300 -241 677 -379 1202 -440 209 -25 709 -25 920 0 592 68 1022 247 1320 550
267 272 418 629 465 1095 6 65 10 582 10 1392 l0 1289 -415 0 -414 0 -4 -1312
c-3 -1192 -5 -1321 -21 -1398 -92 -461 -303 -704 -726 -838 -206 -66 -541 -98
-834 -82 -246 14 -397 40 -560 97 -389 135 -591 376 -683 820 -15 69 -17 225
-20 1396 l-4 1317 -414 0 -415 0 0 -1293z"/>
<path d="M2510 5430 l0 -960 958 2 957 3 3 958 2 957 -960 0 -960 0 0 -960z"/>
<path d="M5010 5430 l0 -960 960 0 960 0 0 960 0 960 -960 0 -960 0 0 -960z"/>
<path d="M7520 5430 l0 -960 960 0 960 0 0 960 0 960 -960 0 -960 0 0 -960z"/>
<path d="M13168 3120 c-164 -41 -293 -183 -345 -380 -24 -90 -23 -310 1 -400
39 -143 130 -276 229 -333 92 -53 205 -74 312 -57 183 29 319 152 381 345 36
109 45 305 19 421 -39 179 -130 304 -271 371 -71 34 -84 37 -183 39 -58 2
-123 -1 -143 -6z m222 -132 c138 -42 226 -192 237 -403 8 -135 -9 -227 -58
-325 -65 -130 -148 -185 -279 -185 -91 0 -150 24 -207 83 -88 91 -126 207
-127 387 0 171 34 276 118 363 86 91 193 118 316 80z"/>
<path d="M17910 3117 c-164 -47 -284 -178 -336 -367 -25 -90 -25 -319 -1 -410
63 -232 208 -368 422 -395 125 -16 277 38 369 129 64 64 97 119 133 222 26 74
28 89 27 244 0 152 -2 171 -27 245 -49 147 -130 244 -256 303 -68 33 -83 36
-180 39 -66 2 -123 -2 -151 -10z m230 -129 c138 -43 226 -194 237 -408 11
-223 -68 -410 -200 -475 -189 -92 -378 8 -449 240 -30 94 -32 290 -4 380 68
224 223 322 416 263z"/>
<path d="M10960 2535 l0 -575 340 0 340 0 0 65 0 65 -265 0 -265 0 0 210 0
210 215 0 215 0 0 60 0 60 -215 0 -215 0 0 180 0 180 255 0 255 0 0 60 0 60
-330 0 -330 0 0 -575z"/>
<path d="M11780 3104 c0 -9 348 -1096 360 -1122 9 -21 15 -23 92 -20 l81 3
182 573 182 573 -76 -3 -75 -3 -111 -375 c-60 -207 -125 -428 -144 -493 -18
-64 -36 -117 -40 -117 -3 0 -62 190 -131 423 -68 232 -133 454 -145 492 l-22
70 -76 3 c-42 2 -77 0 -77 -4z"/>
<path d="M14082 2538 l3 -573 323 -3 322 -2 0 65 0 65 -250 0 -250 0 0 510 0
510 -75 0 -75 0 2 -572z"/>
<path d="M14930 2731 c0 -420 6 -485 58 -587 58 -114 143 -173 280 -194 149
-23 307 27 382 121 41 52 75 133 91 213 5 27 9 224 9 437 l0 389 -69 0 -70 0
-3 -412 c-3 -384 -5 -417 -23 -463 -45 -112 -152 -175 -272 -161 -109 13 -178
71 -214 183 -21 64 -22 91 -27 461 l-4 392 -69 0 -69 0 0 -379z"/>
<path d="M16010 3050 l0 -60 170 0 170 0 2 -512 3 -513 73 -3 72 -3 0 516 0
515 175 0 175 0 0 60 0 60 -420 0 -420 0 0 -60z"/>
<path d="M17102 2538 l3 -573 73 -3 72 -3 0 576 0 575 -75 0 -75 0 2 -572z"/>
<path d="M18832 2538 l3 -573 68 -3 67 -3 0 358 c0 197 -5 412 -10 478 -5 65
-7 121 -6 123 2 2 36 -57 75 -130 39 -73 160 -288 270 -478 l199 -345 76 -3
76 -3 0 576 0 575 -71 0 -72 0 6 -447 c3 -247 9 -461 13 -477 12 -52 -14 -19
-62 77 -26 51 -144 262 -263 469 l-216 378 -78 0 -77 0 2 -572z"/>
<path d="M20250 3107 c0 -2 -85 -255 -190 -563 -104 -307 -190 -565 -190 -572
0 -10 18 -12 72 -10 l71 3 13 40 c7 22 32 100 55 173 l41 132 211 -2 210 -3
18 -55 c10 -30 34 -108 54 -172 l36 -118 75 0 c47 0 74 4 74 11 0 6 -66 205
-146 442 -81 238 -167 492 -191 565 l-45 132 -84 0 c-46 0 -84 -1 -84 -3z
m186 -452 c35 -116 64 -214 64 -218 0 -4 -77 -7 -171 -7 -133 0 -170 3 -166
13 8 22 115 371 137 447 31 111 31 111 52 40 10 -36 48 -160 84 -275z"/>
<path d="M21020 2535 l0 -576 73 3 72 3 3 243 2 242 103 0 102 -1 139 -244
138 -245 80 0 c69 0 79 2 74 16 -3 8 -67 121 -142 250 -75 129 -135 236 -133
238 2 1 27 11 54 21 33 12 70 38 107 75 66 66 88 124 88 230 0 123 -40 205
-127 260 -76 49 -154 60 -407 60 l-226 0 0 -575z m471 445 c96 -27 143 -89
143 -189 -1 -102 -36 -158 -129 -201 -20 -9 -82 -15 -182 -18 l-153 -4 0 217
0 218 143 -6 c78 -4 158 -12 178 -17z"/>
<path d="M21910 3106 c0 -3 77 -161 170 -352 l170 -347 0 -224 0 -224 73 3 72
3 5 235 5 235 74 145 c41 80 116 232 167 338 l93 193 -77 -3 -76 -3 -77 -170
c-154 -338 -182 -396 -190 -388 -4 4 -32 64 -62 133 -30 69 -86 193 -124 275
l-69 150 -77 3 c-42 2 -77 1 -77 -2z"/>
<path d="M23579 3083 c-14 -36 -379 -1115 -379 -1120 0 -1 33 -3 73 -3 l73 0
55 173 55 172 211 3 211 2 32 -102 c17 -57 41 -134 54 -173 l23 -70 76 -3 c42
-2 77 1 76 5 0 4 -87 262 -192 573 l-192 565 -83 3 c-82 3 -82 3 -93 -25z
m116 -173 c17 -64 131 -437 142 -466 4 -12 -21 -14 -166 -14 -94 0 -171 4
-171 9 0 5 27 94 59 197 32 104 69 226 81 272 13 46 26 80 30 75 4 -4 15 -37
25 -73z"/>
<path d="M24360 2535 l0 -575 66 0 66 0 -3 478 -4 479 75 -141 c81 -152 420
-743 452 -788 18 -26 24 -28 89 -28 l69 0 0 575 0 575 -66 0 -66 0 3 -475 c2
-261 3 -475 2 -475 -2 0 -26 46 -54 103 -28 56 -148 270 -266 475 l-215 372
-74 0 -74 0 0 -575z"/>
<path d="M25540 2534 l0 -577 203 6 c280 8 367 34 477 146 94 96 138 213 147
396 12 245 -70 442 -222 531 -102 59 -143 67 -382 72 l-223 4 0 -578z m467
422 c151 -69 225 -231 210 -462 -14 -205 -103 -345 -251 -390 -28 -8 -102 -18
-163 -21 l-113 -6 0 458 0 457 128 -4 c114 -3 133 -6 189 -32z"/>
<path d="M11283 1176 c-181 -46 -311 -183 -364 -383 -27 -100 -29 -286 -5
-387 49 -208 193 -357 383 -397 89 -18 201 -7 275 29 70 32 168 106 168 125 0
7 -18 30 -40 52 l-39 38 -40 -36 c-62 -56 -117 -80 -197 -85 -179 -12 -306 92
-359 295 -21 77 -21 259 0 336 45 172 154 279 298 294 89 9 141 -4 211 -52
l64 -43 42 43 41 42 -43 38 c-74 65 -156 97 -256 101 -51 2 -108 -2 -139 -10z"/>
<path d="M12265 1176 c-132 -32 -234 -115 -295 -240 -58 -118 -74 -189 -73
-336 0 -147 17 -232 70 -338 80 -163 238 -262 418 -262 226 0 403 151 466 398
24 95 26 296 3 392 -67 288 -318 452 -589 386z m252 -144 c130 -67 203 -223
203 -431 0 -170 -38 -286 -123 -378 -55 -59 -107 -85 -187 -91 -78 -5 -129 7
-192 47 -154 98 -219 404 -138 646 36 107 109 185 207 221 56 21 177 13 230
-14z"/>
<path d="M19024 1180 c-59 -12 -137 -54 -180 -97 -56 -56 -79 -114 -79 -203 0
-66 5 -83 31 -130 39 -70 103 -118 224 -171 148 -65 253 -118 279 -142 48 -45
65 -126 37 -190 -66 -154 -339 -157 -510 -6 l-34 29 -41 -47 c-22 -27 -41 -51
-41 -55 0 -14 100 -86 154 -112 129 -61 297 -71 418 -26 76 28 158 103 189
172 35 79 33 184 -4 260 -46 93 -92 123 -378 247 -126 55 -171 98 -176 173 -6
73 18 115 87 151 95 49 235 32 339 -43 22 -17 43 -30 45 -30 3 0 21 20 41 45
l37 44 -29 25 c-43 39 -152 93 -211 105 -60 12 -137 13 -198 1z"/>
<path d="M20846 1179 c-61 -14 -154 -69 -185 -108 -54 -68 -65 -101 -66 -186
0 -71 3 -86 30 -134 39 -71 100 -118 221 -171 183 -79 271 -128 298 -163 75
-97 20 -236 -108 -277 -25 -8 -69 -11 -121 -8 -94 6 -181 41 -252 102 l-41 36
-41 -47 c-23 -25 -40 -51 -38 -57 7 -22 128 -105 184 -126 129 -48 275 -51
387 -9 192 74 273 300 164 463 -41 63 -96 98 -276 177 -172 76 -209 98 -240
144 -30 43 -30 120 1 165 68 100 262 107 398 14 l53 -37 37 44 38 44 -26 27
c-84 88 -281 139 -417 107z"/>
<path d="M25070 1174 c-227 -61 -315 -311 -168 -478 40 -47 41 -47 340 -190
123 -59 151 -83 168 -147 22 -79 -14 -156 -90 -199 -40 -22 -57 -25 -145 -25
-91 0 -106 3 -166 31 -37 18 -85 48 -107 69 l-41 37 -33 -38 c-51 -57 -53 -63
-27 -90 66 -71 209 -132 330 -141 195 -15 367 76 414 218 20 59 22 152 5 206
-33 100 -99 153 -297 239 -81 36 -167 76 -190 89 -56 33 -83 79 -83 142 0 93
68 153 183 161 84 6 155 -13 228 -60 l63 -40 37 43 38 44 -26 27 c-14 14 -51
40 -82 57 -112 59 -237 75 -351 45z"/>
<path d="M13170 595 l0 -575 70 0 70 0 0 348 c0 191 -5 407 -10 481 -6 74 -9
135 -7 137 2 2 38 -92 81 -208 42 -117 112 -307 155 -423 l78 -210 44 -3 44
-2 155 424 c85 233 156 423 158 421 2 -2 -1 -71 -7 -155 -6 -83 -11 -300 -11
-481 l0 -329 70 0 70 0 0 575 0 576 -86 -3 -86 -3 -124 -350 c-68 -192 -136
-384 -151 -425 l-26 -74 -17 39 c-9 22 -79 214 -155 428 l-140 387 -87 0 -88
0 0 -575z"/>
<path d="M14500 595 l0 -575 70 0 70 0 2 228 3 227 175 6 c215 7 271 23 358
103 61 56 85 118 90 228 5 115 -11 175 -64 237 -81 94 -189 120 -496 121
l-208 0 0 -575z m525 420 c67 -34 92 -71 102 -153 8 -74 -12 -146 -56 -192
-52 -55 -117 -71 -289 -73 l-137 -2 -3 229 -2 228 162 -3 c158 -4 165 -5 223
-34z"/>
<path d="M15560 595 l0 -575 325 0 326 0 -3 63 -3 62 -252 3 -253 2 0 510 0
510 -70 0 -70 0 0 -575z"/>
<path d="M16460 595 l0 -575 340 0 340 0 0 65 0 65 -265 0 -265 0 0 205 0 205
215 0 215 0 0 65 0 65 -215 0 -215 0 0 180 0 180 255 0 255 0 0 60 0 60 -330
0 -330 0 0 -575z"/>
<path d="M17330 1165 c0 -3 66 -122 146 -265 80 -143 148 -268 151 -278 2 -10
-65 -139 -161 -310 l-164 -292 77 0 77 0 117 217 c64 120 121 230 126 246 6
15 14 27 18 27 5 -1 67 -111 138 -245 l130 -245 82 0 82 0 -168 294 -168 293
153 274 c85 151 154 277 154 282 0 4 -33 7 -74 7 l-75 0 -83 -162 c-46 -89
-97 -192 -115 -230 -18 -37 -34 -68 -37 -68 -3 0 -61 106 -215 392 l-36 68
-77 0 c-43 0 -78 -2 -78 -5z"/>
<path d="M19610 1162 c0 -5 77 -165 170 -355 l170 -345 0 -221 0 -221 75 0 75
0 0 228 0 228 169 344 170 345 -71 3 c-39 2 -75 -1 -80 -6 -4 -4 -55 -111
-112 -237 -119 -266 -148 -325 -156 -325 -3 0 -25 46 -50 103 -24 56 -81 183
-127 282 l-82 180 -76 3 c-41 2 -75 -1 -75 -6z"/>
<path d="M21460 1110 l0 -60 173 -2 172 -3 3 -513 2 -512 70 0 70 0 2 512 3
513 173 3 172 2 0 60 0 60 -420 0 -420 0 0 -60z"/>
<path d="M22560 595 l0 -575 340 0 341 0 -3 63 -3 62 -267 3 -268 2 0 205 0
205 220 0 221 0 -3 63 -3 62 -218 3 -217 2 2 178 3 177 258 3 257 2 0 60 0 60
-330 0 -330 0 0 -575z"/>
<path d="M23530 595 l0 -575 71 0 72 0 -7 428 c-4 235 -9 454 -11 487 l-5 60
23 -60 c13 -33 84 -226 158 -428 l134 -368 44 3 45 3 155 423 c85 232 156 421
158 419 1 -2 -2 -59 -7 -128 -5 -68 -10 -285 -10 -481 l0 -358 70 0 70 0 0
575 0 576 -87 -3 -87 -3 -88 -245 c-48 -135 -115 -325 -149 -423 -34 -97 -64
-175 -67 -172 -4 3 -74 193 -157 423 l-150 417 -88 3 -87 3 0 -576z"/>
</g>
</svg>
